<mxfile host="app.diagrams.net" modified="2023-08-29T06:14:14.053Z" agent="Mozilla/5.0 (Windows NT 10.0; Win64; x64) AppleWebKit/537.36 (KHTML, like Gecko) Chrome/114.0.0.0 Safari/537.36" version="21.6.9" etag="LwGj46YtEc7f2HWUuvSD" type="github">
  <diagram name="ページ1" id="SOHhejZyNRdWDJggEWoD">
    <mxGraphModel>
      <root>
        <mxCell id="0" />
        <mxCell id="1" parent="0" />
      </root>
    </mxGraphModel>
  </diagram>
</mxfile>
